{
    "asset" : {
        "generator" : "Khronos glTF Blender I/O v1.3.48",
        "version" : "2.0"
    },
    "scene" : 0,
    "scenes" : [
        {
            "name" : "Scene",
            "nodes" : [
                0,
                1,
                2,
                3,
                4,
                5,
                6,
                7,
                8,
                9
            ]
        }
    ],
    "nodes" : [
        {
            "name" : "Light",
            "rotation" : [
                0.16907575726509094,
                0.7558803558349609,
                -0.27217137813568115,
                0.570947527885437
            ],
            "translation" : [
                4.076245307922363,
                5.903861999511719,
                -1.0054539442062378
            ]
        },
        {
            "name" : "Camera",
            "rotation" : [
                0.483536034822464,
                0.33687159419059753,
                -0.20870360732078552,
                0.7804827094078064
            ],
            "translation" : [
                7.358891487121582,
                4.958309173583984,
                6.925790786743164
            ]
        },
        {
            "mesh" : 0,
            "name" : "FaceBuilderHead"
        },
        {
            "name" : "fbCamera",
            "rotation" : [
                0.7035237550735474,
                0.21496546268463135,
                -0.2199573516845703,
                0.640673816204071
            ],
            "translation" : [
                2.263599157333374,
                -0.01892567053437233,
                4.188302993774414
            ]
        },
        {
            "name" : "fbCamera.001",
            "rotation" : [
                0.7089459300041199,
                -0.24029675126075745,
                0.2372138351202011,
                0.6191790699958801
            ],
            "translation" : [
                -2.7931675910949707,
                -0.6141130924224854,
                3.549177885055542
            ]
        },
        {
            "name" : "fbCamera.002",
            "rotation" : [
                0.5302077531814575,
                -0.48376455903053284,
                0.5107219815254211,
                0.47330185770988464
            ],
            "translation" : [
                -5.6750946044921875,
                -0.3583982288837433,
                0.5346496105194092
            ]
        },
        {
            "name" : "fbCamera.003",
            "rotation" : [
                0.5104783177375793,
                0.46787312626838684,
                -0.535952627658844,
                0.4829714596271515
            ],
            "translation" : [
                5.858625888824463,
                -0.614152193069458,
                0.5817500352859497
            ]
        },
        {
            "name" : "fbCamera.004",
            "rotation" : [
                0.9065009355545044,
                0.0200674869120121,
                -0.01946963742375374,
                0.4212769567966461
            ],
            "translation" : [
                -0.030443869531154633,
                -2.057891845703125,
                3.5009655952453613
            ]
        },
        {
            "name" : "fbCamera.005",
            "rotation" : [
                0.7578058838844299,
                0.006860753055661917,
                -0.007630500942468643,
                0.6523994207382202
            ],
            "translation" : [
                -0.07459273189306259,
                -0.6711797118186951,
                4.450333118438721
            ]
        },
        {
            "name" : "fbCamera.006",
            "rotation" : [
                0.5169679522514343,
                0.012069948948919773,
                -0.02646176889538765,
                0.8555104732513428
            ],
            "translation" : [
                -0.02995092049241066,
                1.6948554515838623,
                3.83473801612854
            ]
        }
    ],
    "materials" : [
        {
            "doubleSided" : true,
            "emissiveFactor" : [
                0,
                0,
                0
            ],
            "name" : "kt_facebuilder_material",
            "pbrMetallicRoughness" : {
                "baseColorTexture" : {
                    "index" : 0,
                    "texCoord" : 0
                },
                "metallicFactor" : 0,
                "roughnessFactor" : 0.5
            }
        }
    ],
    "meshes" : [
        {
            "name" : "FaceBuilderHead_mesh",
            "primitives" : [
                {
                    "attributes" : {
                        "POSITION" : 0,
                        "NORMAL" : 1,
                        "TEXCOORD_0" : 2
                    },
                    "indices" : 3,
                    "material" : 0
                }
            ]
        }
    ],
    "textures" : [
        {
            "source" : 0
        }
    ],
    "images" : [
        {
            "bufferView" : 4,
            "mimeType" : "image/png",
            "name" : "kt_facebuilder_texture"
        }
    ],
    "accessors" : [
        {
            "bufferView" : 0,
            "componentType" : 5126,
            "count" : 17308,
            "max" : [
                0.785126805305481,
                1.3136014938354492,
                1.2822238206863403
            ],
            "min" : [
                -0.8452496528625488,
                -1.057148814201355,
                -0.7604328393936157
            ],
            "type" : "VEC3"
        },
        {
            "bufferView" : 1,
            "componentType" : 5126,
            "count" : 17308,
            "type" : "VEC3"
        },
        {
            "bufferView" : 2,
            "componentType" : 5126,
            "count" : 17308,
            "type" : "VEC2"
        },
        {
            "bufferView" : 3,
            "componentType" : 5123,
            "count" : 103146,
            "type" : "SCALAR"
        }
    ],
    "bufferViews" : [
        {
            "buffer" : 0,
            "byteLength" : 207696,
            "byteOffset" : 0
        },
        {
            "buffer" : 0,
            "byteLength" : 207696,
            "byteOffset" : 207696
        },
        {
            "buffer" : 0,
            "byteLength" : 138464,
            "byteOffset" : 415392
        },
        {
            "buffer" : 0,
            "byteLength" : 206292,
            "byteOffset" : 553856
        },
        {
            "buffer" : 0,
            "byteLength" : 1091084,
            "byteOffset" : 760148
        }
    ],
    "buffers" : [
        {
            "byteLength" : 1851232,
            "uri" : "data:application/octet-stream;base64,"
        }
    ]
}
