<?xml version="1.0" encoding="utf-8"?>
<!-- Generator: Adobe Illustrator 25.0.0, SVG Export Plug-In . SVG Version: 6.00 Build 0)  -->
<svg version="1.1" id="Calque_1" xmlns="http://www.w3.org/2000/svg" xmlns:xlink="http://www.w3.org/1999/xlink" x="0px" y="0px"
	 viewBox="0 0 512 512" style="enable-background:new 0 0 512 512;" xml:space="preserve">
<style type="text/css">
	.st0{fill:#FFFFFF;}
</style>
<path class="st0" d="M453.3,469.7H58.7C26.3,469.7,0,443.4,0,411V144.3C0,112,26.3,85.7,58.7,85.7h128c8.8,0,16,7.2,16,16
	s-7.2,16-16,16h-128c-14.7,0-26.7,12-26.7,26.7V411c0,14.7,12,26.7,26.7,26.7h394.7c14.7,0,26.7-12,26.7-26.7V144.3
	c0-14.7-12-26.7-26.7-26.7h-128c-8.8,0-16-7.2-16-16s7.2-16,16-16h128c32.4,0,58.7,26.3,58.7,58.7V411
	C512,443.4,485.7,469.7,453.3,469.7z"/>
<path class="st0" d="M304,160.3h-96c-20.6,0-37.3-16.7-37.3-37.3V80.3c0-20.6,16.7-37.3,37.3-37.3h96c20.6,0,37.3,16.7,37.3,37.3
	V123C341.3,143.6,324.6,160.3,304,160.3z M208,75c-2.9,0-5.3,2.4-5.3,5.3V123c0,2.9,2.4,5.3,5.3,5.3h96c2.9,0,5.3-2.4,5.3-5.3V80.3
	c0-2.9-2.4-5.3-5.3-5.3H208z"/>
<path class="st0" d="M160,299c-29.4,0-53.3-23.9-53.3-53.3c0-29.4,23.9-53.3,53.3-53.3s53.3,23.9,53.3,53.3
	C213.3,275.1,189.4,299,160,299z M160,224.3c-11.8,0-21.3,9.6-21.3,21.3c0,11.8,9.6,21.3,21.3,21.3s21.3-9.6,21.3-21.3
	C181.3,233.9,171.8,224.3,160,224.3z"/>
<path class="st0" d="M240,405.7c-8.8,0-16-7.2-16-16V379c0-14.7-12-26.7-26.7-26.7h-74.7c-14.7,0-26.7,12-26.7,26.7v10.7
	c0,8.8-7.2,16-16,16s-16-7.2-16-16V379c0-32.4,26.3-58.7,58.7-58.7h74.7c32.4,0,58.7,26.3,58.7,58.7v10.7
	C256,398.5,248.8,405.7,240,405.7z"/>
<path class="st0" d="M432,235H314.7c-8.8,0-16-7.2-16-16s7.2-16,16-16H432c8.8,0,16,7.2,16,16S440.8,235,432,235z"/>
<path class="st0" d="M432,320.3H314.7c-8.8,0-16-7.2-16-16s7.2-16,16-16H432c8.8,0,16,7.2,16,16S440.8,320.3,432,320.3z"/>
<path class="st0" d="M432,405.7H314.7c-8.8,0-16-7.2-16-16s7.2-16,16-16H432c8.8,0,16,7.2,16,16S440.8,405.7,432,405.7z"/>
</svg>
